<svg id="Flat" height="512" viewBox="0 0 512 512" width="512" xmlns="http://www.w3.org/2000/svg"><rect fill="#e9eef2" height="288" rx="16" width="320" x="24" y="24"/><path d="m344 88v208a16 16 0 0 1 -16 16h-288a16 16 0 0 1 -16-16v-208z" fill="#7e8589"/><path d="m72 88v224h-32a16 16 0 0 1 -16-16v-208z" fill="#6a7073"/><circle cx="56" cy="56" fill="#eb423f" r="8"/><circle cx="88" cy="56" fill="#ffd33a" r="8"/><circle cx="120" cy="56" fill="#3dc285" r="8"/><circle cx="104" cy="136" fill="#e9eef2" r="8"/><circle cx="104" cy="168" fill="#e9eef2" r="8"/><circle cx="104" cy="200" fill="#e9eef2" r="8"/><circle cx="104" cy="232" fill="#e9eef2" r="8"/><circle cx="104" cy="264" fill="#e9eef2" r="8"/><path d="m152 144h-16a8 8 0 0 1 0-16h16a8 8 0 0 1 0 16z" fill="#ed6f6d"/><path d="m168 240h-32a8 8 0 0 1 0-16h32a8 8 0 0 1 0 16z" fill="#3dc285"/><path d="m216 176h-80a8 8 0 0 1 0-16h80a8 8 0 0 1 0 16z" fill="#3397e8"/><path d="m216 208h-80a8 8 0 0 1 0-16h80a8 8 0 0 1 0 16z" fill="#ffd33a"/><path d="m312 176h-64a8 8 0 0 1 0-16h64a8 8 0 0 1 0 16z" fill="#3dc285"/><path d="m312 144h-128a8 8 0 0 1 0-16h128a8 8 0 0 1 0 16z" fill="#ed6f6d"/><path d="m216 272h-80a8 8 0 0 1 0-16h80a8 8 0 0 1 0 16z" fill="#3397e8"/><rect fill="#dadcde" height="288" rx="16" width="320" x="168" y="200"/><path d="m488 216v48h-320v-48a16 16 0 0 1 16-16h288a16 16 0 0 1 16 16z" fill="#e9eef2"/><circle cx="200" cy="232" fill="#eb423f" r="8"/><circle cx="232" cy="232" fill="#ffd33a" r="8"/><circle cx="264" cy="232" fill="#3dc285" r="8"/><g fill="#3397e8"><path d="m216 336a24 24 0 1 1 24-24 24.028 24.028 0 0 1 -24 24zm0-32a8 8 0 1 0 8 8 8.009 8.009 0 0 0 -8-8z"/><path d="m344 336a24 24 0 1 1 24-24 24.028 24.028 0 0 1 -24 24zm0-32a8 8 0 1 0 8 8 8.009 8.009 0 0 0 -8-8z"/><path d="m216 400a24 24 0 1 1 24-24 24.028 24.028 0 0 1 -24 24zm0-32a8 8 0 1 0 8 8 8.009 8.009 0 0 0 -8-8z"/><path d="m280 400a24 24 0 1 1 24-24 24.028 24.028 0 0 1 -24 24zm0-32a8 8 0 1 0 8 8 8.009 8.009 0 0 0 -8-8z"/><path d="m264 336a8 8 0 0 1 -8-8v-32a8 8 0 0 1 16 0v32a8 8 0 0 1 -8 8z"/><path d="m296 336a8 8 0 0 1 -8-8v-32a8 8 0 0 1 16 0v32a8 8 0 0 1 -8 8z"/><path d="m328 400a8 8 0 0 1 -8-8v-32a8 8 0 0 1 16 0v32a8 8 0 0 1 -8 8z"/><path d="m360 400a8 8 0 0 1 -8-8v-32a8 8 0 0 1 16 0v32a8 8 0 0 1 -8 8z"/><path d="m408 336a24 24 0 1 1 24-24 24.028 24.028 0 0 1 -24 24zm0-32a8 8 0 1 0 8 8 8.009 8.009 0 0 0 -8-8z"/><path d="m440 400a24 24 0 1 1 24-24 24.028 24.028 0 0 1 -24 24zm0-32a8 8 0 1 0 8 8 8.009 8.009 0 0 0 -8-8z"/><path d="m392 400a8 8 0 0 1 -8-8v-32a8 8 0 0 1 16 0v32a8 8 0 0 1 -8 8z"/><path d="m456 336a8 8 0 0 1 -8-8v-32a8 8 0 0 1 16 0v32a8 8 0 0 1 -8 8z"/><path d="m456 464a8 8 0 0 1 -8-8v-32a8 8 0 0 1 16 0v32a8 8 0 0 1 -8 8z"/><path d="m280 464a24 24 0 1 1 24-24 24.028 24.028 0 0 1 -24 24zm0-32a8 8 0 1 0 8 8 8.009 8.009 0 0 0 -8-8z"/><path d="m408 464a24 24 0 1 1 24-24 24.028 24.028 0 0 1 -24 24zm0-32a8 8 0 1 0 8 8 8.009 8.009 0 0 0 -8-8z"/><path d="m328 464a8 8 0 0 1 -8-8v-32a8 8 0 0 1 16 0v32a8 8 0 0 1 -8 8z"/><path d="m360 464a8 8 0 0 1 -8-8v-32a8 8 0 0 1 16 0v32a8 8 0 0 1 -8 8z"/><path d="m200 464a8 8 0 0 1 -8-8v-32a8 8 0 0 1 16 0v32a8 8 0 0 1 -8 8z"/><path d="m232 464a8 8 0 0 1 -8-8v-32a8 8 0 0 1 16 0v32a8 8 0 0 1 -8 8z"/></g><path d="m264 368-64-56v32h-128v48h128v32z" fill="#eb423f"/></svg>